<svg width="192" height="192" viewBox="0 0 100 100" xmlns="http://www.w3.org/2000/svg" fill="#4A553A"><path d="M50,10c-22,0-40,18-40,40s18,40,40,40s40-18,40-40S72,10,50,10z M50,15c19.3,0,35,15.7,35,35S69.3,85,50,85 S15,69.3,15,50S30.7,15,50,15z M60.3,31.4c-4.4-2-9.2-1.6-13.2,1.1c-3.1,2.1-5.2,5.5-5.9,9.2c-0.2,1.3,0.8,2.5,2.1,2.7 c1.3,0.2,2.5-0.8,2.7-2.1c0.5-2.6,2-5,4.3-6.5c2.9-2,6.4-2.3,9.6-0.6c1.1,0.5,2.3-0.2,2.8-1.3C63.1,32.8,62,31.8,60.3,31.4z M45.1,48.2c-0.6,0.9-0.3,2.1,0.6,2.7c3.9,2.6,6.1,7,6.1,11.5c0,6.9-5.6,12.5-12.5,12.5S26.8,70,26.8,63.2 c0-5.4,3.5-10.1,8.5-11.8c1.1-0.4,1.7-1.6,1.3-2.7c-0.4-1.1-1.6-1.7-2.7-1.3c-6,2-10,8-10,14.5c0,8.3,6.7,15,15,15 s15-6.7,15-15c0-5.5-2.7-10.7-7.4-13.6C50.9,48.2,49.8,47.9,49.1,48.2C47.4,48.2,45.8,48.2,45.1,48.2z M71,50c0,1.4-1.1,2.5-2.5,2.5S66,51.4,66,50s1.1-2.5,2.5-2.5S71,48.6,71,50z"/></svg>
